<?xml version="1.0" standalone="no"?>
<!DOCTYPE svg PUBLIC "-//W3C//DTD SVG 20010904//EN"
 "http://www.w3.org/TR/2001/REC-SVG-20010904/DTD/svg10.dtd">
<svg version="1.0" xmlns="http://www.w3.org/2000/svg"
 width="100.000000pt" height="100.000000pt" viewBox="0 0 100.000000 100.000000"
 preserveAspectRatio="xMidYMid meet">

<g transform="translate(0.000000,100.000000) scale(0.100000,-0.100000)"
fill="#000000" stroke="none">
<path d="M460 911 c-71 -22 -119 -63 -144 -123 -21 -49 -16 -230 6 -255 28
-33 58 -109 58 -146 0 -47 -22 -67 -112 -102 -86 -34 -153 -95 -163 -148 -4
-20 -4 -40 0 -46 4 -7 77 -11 210 -11 l204 0 3 -37 3 -38 235 0 235 0 0 225 0
225 -177 3 -177 2 10 28 c6 15 18 35 27 45 24 27 28 195 6 254 -17 46 -55 83
-85 83 -10 0 -26 11 -35 25 -17 26 -52 31 -104 16z m78 -48 c5 -9 24 -21 42
-27 18 -6 42 -23 52 -37 26 -34 34 -101 18 -139 -10 -23 -10 -34 -1 -43 17
-17 13 -42 -9 -62 -11 -10 -20 -24 -20 -31 0 -37 -23 -63 -59 -66 l-36 -3 -3
-167 -2 -168 -185 0 c-123 0 -185 4 -185 10 0 37 35 71 105 105 41 19 79 35
84 35 6 0 26 14 46 31 32 28 35 36 35 85 0 36 -7 64 -20 86 -11 18 -20 40 -20
49 0 9 -9 24 -20 34 -22 20 -26 45 -8 63 9 9 9 18 0 37 -38 83 17 185 116 215
43 13 60 11 70 -7z m422 -633 l0 -190 -200 0 -200 0 0 190 0 190 200 0 200 0
0 -190z"/>
<path d="M665 369 c-14 -22 14 -30 101 -27 71 2 89 6 89 18 0 12 -18 16 -92
18 -60 2 -94 -1 -98 -9z"/>
</g>
</svg>
